<svg width="20" height="18" viewBox="0 0 20 18" fill="none" xmlns="http://www.w3.org/2000/svg">
<path d="M1 0C0.447715 0 0 0.447715 0 1C0 1.55228 0.447715 2 1 2V0ZM19 2C19.5523 2 20 1.55228 20 1C20 0.447715 19.5523 0 19 0V2ZM1 2H19V0H1V2Z" fill="black"/>
<path d="M1 8C0.447715 8 0 8.44772 0 9C0 9.55228 0.447715 10 1 10V8ZM19 10C19.5523 10 20 9.55228 20 9C20 8.44772 19.5523 8 19 8V10ZM1 10H19V8H1V10Z" fill="black"/>
<path d="M1 16C0.447715 16 0 16.4477 0 17C0 17.5523 0.447715 18 1 18V16ZM19 18C19.5523 18 20 17.5523 20 17C20 16.4477 19.5523 16 19 16V18ZM1 18H19V16H1V18Z" fill="black"/>
</svg>
