<svg width="20" height="20" viewBox="0 0 20 20" fill="none" xmlns="http://www.w3.org/2000/svg">
<path d="M18.027 18.027L17.2978 18.7113L17.3087 18.7229L17.3199 18.7341L18.027 18.027ZM18.2929 19.7071C18.6834 20.0976 19.3166 20.0976 19.7071 19.7071C20.0976 19.3166 20.0976 18.6834 19.7071 18.2929L18.2929 19.7071ZM8.78378 15.5676C5.0372 15.5676 2 12.5304 2 8.78378H0C0 13.6349 3.93263 17.5676 8.78378 17.5676V15.5676ZM2 8.78378C2 5.0372 5.0372 2 8.78378 2V0C3.93263 0 0 3.93263 0 8.78378H2ZM8.78378 2C12.5304 2 15.5676 5.0372 15.5676 8.78378H17.5676C17.5676 3.93263 13.6349 0 8.78378 0V2ZM15.5676 8.78378C15.5676 10.6048 14.8514 12.2564 13.6833 13.4758L15.1275 14.8593C16.638 13.2825 17.5676 11.1407 17.5676 8.78378H15.5676ZM13.6833 13.4758C12.4472 14.7661 10.7099 15.5676 8.78378 15.5676V17.5676C11.2775 17.5676 13.5299 16.5271 15.1275 14.8593L13.6833 13.4758ZM13.6762 14.8518L17.2978 18.7113L18.7562 17.3427L15.1346 13.4833L13.6762 14.8518ZM17.3199 18.7341L17.8064 19.2206L19.2206 17.8064L18.7341 17.3199L17.3199 18.7341ZM17.8064 19.2206L18.2929 19.7071L19.7071 18.2929L19.2206 17.8064L17.8064 19.2206Z" fill="black"/>
</svg>
